Coordinates
version=1
nRows=10
nColumns=40
inDegrees=yes

Units are S.I. units (second, meters, Newtons, ...)
Angles are in degrees.

endheader
time	pelvis_tilt	pelvis_list	pelvis_rotation	pelvis_tx	pelvis_ty	pelvis_tz	hip_flexion_r	hip_adduction_r	hip_rotation_r	knee_angle_r	knee_angle_r_beta	ankle_angle_r	subtalar_angle_r	mtp_angle_r	hip_flexion_l	hip_adduction_l	hip_rotation_l	knee_angle_l	knee_angle_l_beta	ankle_angle_l	subtalar_angle_l	mtp_angle_l	lumbar_extension	lumbar_bending	lumbar_rotation	arm_flex_r	arm_add_r	arm_rot_r	elbow_flex_r	pro_sup_r	wrist_flex_r	wrist_dev_r	arm_flex_l	arm_add_l	arm_rot_l	elbow_flex_l	pro_sup_l	wrist_flex_l	wrist_dev_l
     22.49750000	     -5.17477872	     -4.80492204	     -1.46938769	      1.06936863	      0.91483050	      0.48328442	     25.66403211	      0.74481292	    -12.98180972	     23.81974768	     23.81974768	      5.39299087	     -2.28860421	     -2.86097398	      9.44914359	    -11.16589409	     -3.48560894	     45.68718069	     45.68718069	     11.59669477	    -17.05216379	     -7.21496989	    -12.28400880	      5.51578909	      3.88196122	    -13.98150897	    -13.86652461	    -11.94883949	     28.82339280	     47.05361438	      0.00000000	      0.00000000	     19.33517470	    -15.14740916	     -5.98486021	    102.76944138	     48.18993803	      0.00000000	      0.00000000
     22.50914286	     -5.26001050	     -4.85395245	     -1.09930161	      1.06862285	      0.91614358	      0.48547653	     24.98089201	      0.78002962	    -13.63244709	     23.46310714	     23.46310714	      5.95241778	     -1.57074650	     -2.86938034	     12.06717480	    -11.24177055	     -2.23599725	     50.24418043	     50.24418043	     12.52060195	    -17.27787853	      0.48574885	    -12.31883992	      5.55429246	      3.37602378	    -11.61869215	    -14.00403108	     -9.93811492	     28.22788315	     46.88436548	      0.00000000	      0.00000000	     17.30418075	    -14.63473009	     -6.80258111	    102.54472800	     48.28368696	      0.00000000	      0.00000000
     22.52078571	     -5.31499562	     -5.08760778	     -0.71430570	      1.06787160	      0.91732558	      0.48779357	     24.17987724	      1.09057217	    -14.20494711	     22.92566790	     22.92566790	      6.37981745	     -1.20052206	     -2.96332618	     14.43433398	    -11.71074096	     -1.43896350	     53.95422845	     53.95422845	     11.05122130	    -18.12912699	      1.23224774	    -12.40150968	      5.80499198	      3.71364470	    -10.09056600	    -13.95584824	     -9.74892163	     28.78260762	     46.85408522	      0.00000000	      0.00000000	     15.90817194	    -13.98341089	     -6.33208120	    101.61179959	     48.23271505	      0.00000000	      0.00000000
     22.53242857	     -5.37004624	     -5.27864340	     -0.40017669	      1.06696344	      0.91853525	      0.49009861	     23.40096490	      1.37218393	    -14.77105115	     22.38727665	     22.38727665	      6.65734378	     -0.65280176	     -3.06058615	     16.82366019	    -12.10833668	     -0.74451223	     57.42033015	     57.42033015	     10.22718840	    -18.53499241	      3.01113985	    -12.48347131	      6.00565794	      3.92892973	     -8.35114513	    -13.93282791	     -9.45772762	     29.37077198	     46.81516346	      0.00000000	      0.00000000	     14.45770918	    -13.48317737	     -5.94405040	    100.15701554	     48.17819508	      0.00000000	      0.00000000
     22.54407143	     -5.32454995	     -5.45433099	     -0.12912631	      1.06605581	      0.91970798	      0.49233886	     22.56057811	      1.67641799	    -15.16385029	     21.92031080	     21.92031080	      6.99470901	     -0.27497734	     -3.14541342	     19.04959782	    -12.46035338	     -0.13699137	     60.51901627	     60.51901627	      9.68806503	    -18.82106919	      4.29280712	    -12.65746895	      6.12754842	      4.27902512	     -6.50764579	    -13.98079926	     -9.25037314	     30.00110548	     46.78512847	      0.00000000	      0.00000000	     13.00314305	    -12.79510888	     -5.43456746	     98.80003940	     48.11512811	      0.00000000	      0.00000000
     22.55571429	     -5.40513216	     -5.43938972	      0.18750290	      1.06493660	      0.92083069	      0.49412498	     21.83131083	      1.69750177	    -15.78389695	     21.40502235	     21.40502235	      7.26608463	      0.52814846	     -3.47467977	     21.66073430	    -12.21796278	      0.83296416	     63.72379589	     63.72379589	     11.89318714	    -18.75868543	     12.76866555	    -12.61469624	      6.13662390	      4.61364946	     -4.60059345	    -14.25275063	     -7.64681868	     30.05253139	     46.65504832	      0.00000000	      0.00000000	     12.10310797	    -12.10509437	     -5.29449447	     95.29120755	     48.06241322	      0.00000000	      0.00000000
     22.56735714	     -5.40875518	     -5.57597195	      0.46034887	      1.06387750	      0.92194813	      0.49619441	     20.99832990	      2.01305122	    -16.06702844	     20.79724496	     20.79724496	      7.49878721	      0.77019326	     -3.47431515	     23.90355022	    -12.41528806	      1.37120153	     66.03209453	     66.03209453	     12.13202333	    -18.84970139	     14.71186681	    -12.72183528	      6.21802917	      4.75736471	     -2.67542925	    -14.55716660	     -6.15669588	     31.03776902	     46.48337947	      0.00000000	      0.00000000	     10.61480228	    -11.88427176	     -4.67759200	     93.19592925	     48.01775029	      0.00000000	      0.00000000
     22.57900000	     -5.40559922	     -5.67563603	      0.73378232	      1.06276209	      0.92302932	      0.49815686	     20.18378348	      2.28088673	    -16.37087504	     20.23028127	     20.23028127	      7.75077415	      1.02563768	     -3.46194519	     26.01828379	    -12.58260276	      1.78036363	     67.77089721	     67.77089721	     11.97664429	    -18.97101447	     14.90186981	    -12.85516857	      6.28162632	      4.88586690	     -0.58259931	    -14.66444138	     -5.86567386	     31.88677366	     46.43645838	      0.00000000	      0.00000000	      9.21201756	    -11.56487635	     -4.34133293	     90.57011858	     47.94672674	      0.00000000	      0.00000000
     22.59064286	     -5.38289912	     -5.74902008	      1.01022020	      1.06158854	      0.92411221	      0.50000101	     19.35107543	      2.53242827	    -16.58580116	     19.65039397	     19.65039397	      7.98308468	      1.28714571	     -3.44819363	     28.05144607	    -12.65491593	      2.18975913	     69.06945711	     69.06945711	     12.02730592	    -19.01270215	     15.21567048	    -12.92696858	      6.27182955	      5.03619123	      1.55104267	    -14.82298744	     -5.47708228	     32.71786010	     46.38455216	      0.00000000	      0.00000000	      8.06037235	    -11.18763152	     -3.99127016	     87.28863715	     47.86357555	      0.00000000	      0.00000000
     22.60228571	     -5.37791820	     -5.79925032	      1.30599789	      1.06032776	      0.92512311	      0.50167651	     18.54405828	      2.75506151	    -16.81757270	     19.06359182	     19.06359182	      8.20490776	      1.49095523	     -3.42986259	     30.03089866	    -12.64766597	      2.56253060	     69.90764368	     69.90764368	     12.12759879	    -19.02767279	     15.44352411	    -12.99343189	      6.25472949	      5.19820433	      3.70151154	    -15.00351037	     -5.04289923	     33.63082314	     46.32744928	      0.00000000	      0.00000000	      7.02042538	    -10.82002963	     -3.61898276	     83.65998929	     47.77488548	      0.00000000	      0.00000000
